<svg xmlns="http://www.w3.org/2000/svg" xmlns:xlink="http://www.w3.org/1999/xlink" version="1.1" x="0px" y="0px" viewBox="0 0 100 150" enable-background="new 0 0 100 120" xml:space="preserve"><g><path d="M88.482,59.875c-0.407,0-1.44,0.14-2.502,0.47c-0.271-3.613-3.299-6.47-6.98-6.47c-1.68,0-3.223,0.594-4.43,1.584   c-0.986-2.673-3.56-4.584-6.57-4.584c-1.751,0-3.552,0.536-5,1.572V34.375c0-4.486-2.621-7.5-6.521-7.5   c-3.919,0-6.763,3.154-6.763,7.503l0.096,42.239l-5.76-6.045c-1.55-1.551-3.6-2.405-5.772-2.405s-4.223,0.854-5.772,2.405   c-3.204,3.203-3.211,8.41-0.072,11.545c0.052,0.059,5.269,5.875,12.712,13.318l1.211,1.215c7.058,7.096,13.152,13.225,25.35,13.225   c12.629,0,16.854-6.338,20.1-12.83c3.122-6.244,3.158-30.156,3.158-31.17C94.965,62.678,91.936,59.875,88.482,59.875z    M89.123,95.703c-3.056,6.112-6.475,11.172-17.416,11.172c-10.95,0-16.366-5.445-23.223-12.34l-1.217-1.221   c-7.381-7.381-12.547-13.141-12.655-13.258c-0.981-0.982-1.521-2.289-1.518-3.679c0.004-1.392,0.548-2.7,1.533-3.685   c0.983-0.984,2.28-1.526,3.651-1.526s2.667,0.542,3.625,1.5l8.33,8.742c0.425,0.445,1.078,0.587,1.645,0.357   c0.57-0.229,0.942-0.782,0.941-1.396l-0.104-45.997c0-2.076,0.985-4.5,3.763-4.5c3.268,0,3.521,3.444,3.521,4.5v28   c0,0.828,0.672,1.5,1.5,1.5s1.5-0.672,1.5-1.5v-4c0-3.302,2.99-4.5,5-4.5c2.206,0,4,1.794,4,4v5.5c0,0.828,0.672,1.5,1.5,1.5   s1.5-0.672,1.5-1.5v-2.5c0-2.206,1.794-4,4-4s4,1.794,4,4v6.5c0,0.828,0.672,1.5,1.5,1.5s1.5-0.672,1.5-1.5v-3.82   c0.6-0.292,1.776-0.68,2.482-0.68c1.79,0,3.482,1.457,3.482,3C91.965,72.591,91.453,91.043,89.123,95.703z"/><path d="M44.5,26c0-1-1-2-2-2H13v-3.125c0-0.606-0.615-1.153-1.176-1.386s-1.456-0.104-1.885,0.325L5,25.375   c-0.586,0.586-0.586,1.414,0,2l4.939,5.561c0.429,0.429,1.324,0.558,1.885,0.325S13,32.481,13,31.875V28h29.5   C43.5,28,44.5,27,44.5,26z"/><path d="M17.5,18H48v3.875c0,0.606,0.115,1.153,0.676,1.386s0.956,0.104,1.385-0.325L56,17.375c0.586-0.586,0.586-1.414,0-2   l-5.939-5.561c-0.429-0.429-0.824-0.558-1.385-0.325S48,10.268,48,10.875V14H17.5c-1,0-2,1-2,2S16.5,18,17.5,18z"/></g></svg>