<svg fill="#000000" xmlns="http://www.w3.org/2000/svg"  viewBox="0 0 64 64" width="64px" height="64px"><path d="M 32 13 C 23.281168 13 15.375565 15.059851 9.5742188 18.460938 C 3.7728722 21.862024 0 26.694293 0 32.173828 C 0 37.653363 3.7728722 42.485633 9.5742188 45.886719 C 15.375565 49.287805 23.281168 51.347656 32 51.347656 C 40.718832 51.347656 48.624435 49.287805 54.425781 45.886719 C 60.227128 42.485633 64 37.653363 64 32.173828 C 64 26.694293 60.227128 21.862022 54.425781 18.460938 C 48.624435 15.059851 40.718832 13 32 13 z M 32 15 C 40.401995 15 47.995616 17.008939 53.414062 20.185547 C 58.83251 23.362155 62 27.61614 62 32.173828 C 62 36.731516 58.832511 40.985501 53.414062 44.162109 C 47.995616 47.338718 40.401995 49.347656 32 49.347656 C 23.598005 49.347656 16.004384 47.338718 10.585938 44.162109 C 5.1674896 40.985501 2 36.731516 2 32.173828 C 2 27.61614 5.1674896 23.362155 10.585938 20.185547 C 16.004383 17.008939 23.598005 15 32 15 z M 26.015625 18.330078 A 1.0001 1.0001 0 0 0 25.845703 18.345703 C 24.332137 18.581147 22.926629 18.867069 21.621094 19.191406 A 1.0001 1.0001 0 1 0 22.103516 21.130859 C 23.349981 20.821197 24.697863 20.546869 26.154297 20.320312 A 1.0001 1.0001 0 0 0 26.015625 18.330078 z M 17.908203 20.363281 A 1.0001 1.0001 0 0 0 17.546875 20.429688 C 13.224977 22.010029 10.383425 23.989937 8.6191406 25.597656 C 6.8548567 27.205376 6.1230469 28.521484 6.1230469 28.521484 A 1.0001 1.0001 0 1 0 7.8769531 29.478516 C 7.8769531 29.478516 8.3870808 28.515702 9.9667969 27.076172 C 11.546513 25.636641 14.152273 23.801252 18.234375 22.308594 A 1.0001 1.0001 0 0 0 17.908203 20.363281 z M 29.640625 21.044922 L 26.261719 37.21875 L 29.798828 37.21875 L 31.505859 29.130859 L 34.332031 29.130859 C 35.234031 29.130859 35.829422 29.282078 36.107422 29.580078 C 36.383422 29.881078 36.445156 30.446625 36.285156 31.265625 L 34.994141 37.21875 L 38.587891 37.21875 L 39.986328 30.777344 C 40.286328 29.233344 40.058547 28.101063 39.310547 27.414062 C 38.548547 26.716062 37.206078 26.435547 35.205078 26.435547 L 32.052734 26.435547 L 33.177734 21.044922 L 29.640625 21.044922 z M 14.130859 26.435547 L 11.396484 41.261719 L 14.962891 41.261719 L 15.673828 37.21875 L 17.892578 37.21875 C 22.537578 37.21875 25.064766 36.14225 26.009766 32.15625 C 26.822766 28.73125 24.744359 26.435547 21.318359 26.435547 L 14.130859 26.435547 z M 42.435547 26.435547 L 39.701172 41.261719 L 43.267578 41.261719 L 43.978516 37.21875 L 46.197266 37.21875 C 50.842266 37.21875 53.369453 36.14225 54.314453 32.15625 C 55.127453 28.73125 53.049047 26.435547 49.623047 26.435547 L 42.435547 26.435547 z M 17.193359 29.130859 L 19.972656 29.130859 C 22.274656 29.130859 22.758672 30.169219 22.638672 31.324219 C 22.329672 34.297219 20.475469 34.521484 18.480469 34.521484 L 16.175781 34.521484 L 17.193359 29.130859 z M 45.498047 29.130859 L 48.277344 29.130859 C 50.579344 29.130859 51.063359 30.169219 50.943359 31.324219 C 50.634359 34.297219 48.779156 34.521484 46.785156 34.521484 L 44.480469 34.521484 L 45.498047 29.130859 z M 57.628906 46.96875 A 1.0001 1.0001 0 0 0 56.775391 48.517578 L 57.849609 50.205078 A 1.000725 1.000725 0 1 0 59.537109 49.128906 L 58.460938 47.443359 A 1.0001 1.0001 0 0 0 57.628906 46.96875 z M 53.529297 49.183594 A 1.0001 1.0001 0 0 0 52.6875 50.621094 L 53.541016 52.431641 A 1.0003544 1.0003544 0 0 0 55.349609 51.576172 L 54.496094 49.767578 A 1.0001 1.0001 0 0 0 53.529297 49.183594 z M 49.261719 50.914062 A 1.0001 1.0001 0 0 0 48.369141 52.253906 L 49.023438 54.144531 A 1.0003204 1.0003204 0 1 0 50.914062 53.490234 L 50.259766 51.599609 A 1.0001 1.0001 0 0 0 49.261719 50.914062 z M 44.820312 52.214844 A 1.0001 1.0001 0 0 0 43.902344 53.460938 L 44.371094 55.40625 A 1.0007247 1.0007247 0 0 0 46.316406 54.935547 L 45.847656 52.992188 A 1.0001 1.0001 0 0 0 44.820312 52.214844 z M 40.363281 53.099609 A 1.0001 1.0001 0 0 0 40.261719 53.101562 A 1.0001 1.0001 0 0 0 39.337891 54.261719 L 39.632812 56.240234 A 1.0001881 1.0001881 0 1 0 41.611328 55.945312 L 41.316406 53.966797 A 1.0001 1.0001 0 0 0 40.363281 53.099609 z M 35.732422 53.585938 A 1.0001 1.0001 0 0 0 34.714844 54.664062 L 34.84375 56.660156 A 1.000126 1.000126 0 1 0 36.839844 56.53125 L 36.708984 54.535156 A 1.0001 1.0001 0 0 0 35.732422 53.585938 z"/></svg>